<svg width="584" height="567" viewBox="0 0 584 567" fill="none" xmlns="http://www.w3.org/2000/svg">
<path d="M275.584 40H283.504V1.06H277.674C277.271 3.26 276.299 4.855 274.759 5.845C273.256 6.835 271.184 7.33 268.544 7.33H267.829V12.5H275.584V40ZM316.97 40V33.84H302.285C302.468 33.1067 302.89 32.245 303.55 31.255C304.21 30.2283 305.127 29.1833 306.3 28.12L310.7 24.05C311.8 23.06 312.735 22.1067 313.505 21.19C314.275 20.2367 314.898 19.265 315.375 18.275C315.852 17.285 316.2 16.2583 316.42 15.195C316.64 14.095 316.75 12.9217 316.75 11.675C316.75 8.265 315.797 5.64333 313.89 3.81C311.983 1.97667 309.05 1.06 305.09 1.06C300.91 1.06 297.848 2.03167 295.905 3.975C293.962 5.91833 292.99 8.705 292.99 12.335V13.82H300.58C300.58 12.7933 300.617 11.8217 300.69 10.905C300.8 9.98833 301.002 9.18167 301.295 8.485C301.625 7.78833 302.065 7.23833 302.615 6.835C303.202 6.43167 303.99 6.23 304.98 6.23C307.547 6.23 308.83 7.84333 308.83 11.07C308.83 12.06 308.775 12.94 308.665 13.71C308.592 14.48 308.408 15.195 308.115 15.855C307.822 16.515 307.4 17.175 306.85 17.835C306.337 18.495 305.64 19.21 304.76 19.98L301.57 22.95C300.14 24.27 298.875 25.59 297.775 26.91C296.712 28.1933 295.813 29.5133 295.08 30.87C294.383 32.2267 293.852 33.6567 293.485 35.16C293.155 36.6633 292.99 38.2767 292.99 40H316.97Z" fill="#7A7A7A"/>
<path d="M549.477 291.615H541.887V291.78C541.887 295.557 542.822 298.472 544.692 300.525C546.562 302.578 549.385 303.605 553.162 303.605C555.875 303.605 558.057 303.257 559.707 302.56C561.394 301.863 562.714 300.947 563.667 299.81C564.62 298.673 565.262 297.408 565.592 296.015C565.922 294.622 566.087 293.265 566.087 291.945C566.087 289.488 565.555 287.453 564.492 285.84C563.465 284.19 561.687 283.163 559.157 282.76V282.65C561.027 282.247 562.475 281.312 563.502 279.845C564.565 278.342 565.097 276.417 565.097 274.07C565.097 270.623 564.107 268.093 562.127 266.48C560.184 264.867 557.434 264.06 553.877 264.06C550.137 264.06 547.295 265.013 545.352 266.92C543.409 268.79 542.437 271.668 542.437 275.555H549.697C549.697 274.638 549.734 273.795 549.807 273.025C549.917 272.255 550.119 271.595 550.412 271.045C550.705 270.458 551.109 270.018 551.622 269.725C552.172 269.395 552.869 269.23 553.712 269.23C554.995 269.23 555.949 269.615 556.572 270.385C557.195 271.155 557.507 272.475 557.507 274.345C557.507 275.152 557.415 275.922 557.232 276.655C557.085 277.388 556.829 278.048 556.462 278.635C556.132 279.185 555.674 279.643 555.087 280.01C554.537 280.34 553.84 280.505 552.997 280.505H550.412V285.675H553.052C554.152 285.675 555.032 285.858 555.692 286.225C556.352 286.592 556.865 287.087 557.232 287.71C557.599 288.333 557.837 289.048 557.947 289.855C558.094 290.625 558.167 291.45 558.167 292.33C558.167 293.173 558.112 293.98 558.002 294.75C557.929 295.52 557.727 296.198 557.397 296.785C557.104 297.335 556.664 297.775 556.077 298.105C555.527 298.435 554.775 298.6 553.822 298.6C552.099 298.6 550.944 298.013 550.357 296.84C549.807 295.63 549.514 293.888 549.477 291.615Z" fill="#7A7A7A"/>
<path d="M25.4771 276.93C25.4771 275.83 25.5138 274.822 25.5871 273.905C25.6971 272.952 25.8988 272.127 26.1921 271.43C26.4854 270.733 26.9071 270.202 27.4571 269.835C28.0438 269.432 28.8138 269.23 29.7671 269.23C30.6838 269.23 31.4171 269.432 31.9671 269.835C32.5538 270.202 32.9938 270.733 33.2871 271.43C33.6171 272.09 33.8371 272.897 33.9471 273.85C34.0571 274.803 34.1121 275.83 34.1121 276.93C34.1121 279.57 33.7821 281.458 33.1221 282.595C32.4621 283.732 31.3438 284.3 29.7671 284.3C28.2271 284.3 27.1271 283.732 26.4671 282.595C25.8071 281.458 25.4771 279.57 25.4771 276.93ZM26.0821 293.925H18.4921C18.5288 295.795 18.8404 297.372 19.4271 298.655C20.0504 299.902 20.8571 300.91 21.8471 301.68C22.8371 302.413 23.9738 302.908 25.2571 303.165C26.5771 303.458 27.9338 303.605 29.3271 303.605C32.5171 303.605 34.9921 303.037 36.7521 301.9C38.5488 300.727 39.8504 299.15 40.6571 297.17C41.5004 295.19 41.9954 292.917 42.1421 290.35C42.3254 287.747 42.4171 285.052 42.4171 282.265C42.4171 279.882 42.2888 277.59 42.0321 275.39C41.7754 273.19 41.2071 271.265 40.3271 269.615C39.4838 267.928 38.2554 266.59 36.6421 265.6C35.0288 264.573 32.8654 264.06 30.1521 264.06C25.7521 264.06 22.5438 265.252 20.5271 267.635C18.5471 270.018 17.5571 273.465 17.5571 277.975C17.5571 279.735 17.7221 281.367 18.0521 282.87C18.4188 284.337 18.9688 285.62 19.7021 286.72C20.4721 287.783 21.4621 288.627 22.6721 289.25C23.8821 289.837 25.3488 290.13 27.0721 290.13C28.8321 290.13 30.3171 289.837 31.5271 289.25C32.7738 288.627 33.7271 287.82 34.3871 286.83H34.4971V288.7C34.4971 290.13 34.4421 291.45 34.3321 292.66C34.2221 293.87 33.9838 294.915 33.6171 295.795C33.2871 296.675 32.8104 297.372 32.1871 297.885C31.5638 298.362 30.7204 298.6 29.6571 298.6C28.3371 298.6 27.4021 298.197 26.8521 297.39C26.3388 296.547 26.0821 295.392 26.0821 293.925Z" fill="#7A7A7A"/>
<path d="M287.862 553.9C287.862 551.26 288.192 549.372 288.852 548.235C289.512 547.098 290.63 546.53 292.207 546.53C293.747 546.53 294.847 547.098 295.507 548.235C296.167 549.372 296.497 551.26 296.497 553.9C296.497 555 296.442 556.027 296.332 556.98C296.259 557.897 296.075 558.703 295.782 559.4C295.489 560.097 295.049 560.647 294.462 561.05C293.912 561.417 293.16 561.6 292.207 561.6C291.29 561.6 290.539 561.417 289.952 561.05C289.402 560.647 288.962 560.115 288.632 559.455C288.339 558.758 288.137 557.933 288.027 556.98C287.917 556.027 287.862 555 287.862 553.9ZM295.892 536.96H303.482C303.445 535.09 303.115 533.532 302.492 532.285C301.905 531.002 301.117 529.975 300.127 529.205C299.137 528.435 297.982 527.885 296.662 527.555C295.379 527.225 294.04 527.06 292.647 527.06C289.42 527.06 286.927 527.665 285.167 528.875C283.407 530.085 282.105 531.698 281.262 533.715C280.455 535.695 279.96 537.987 279.777 540.59C279.63 543.157 279.557 545.815 279.557 548.565C279.557 550.948 279.685 553.24 279.942 555.44C280.199 557.64 280.749 559.583 281.592 561.27C282.472 562.92 283.719 564.222 285.332 565.175C286.945 566.128 289.109 566.605 291.822 566.605C296.222 566.605 299.412 565.45 301.392 563.14C303.409 560.793 304.417 557.365 304.417 552.855C304.417 551.095 304.234 549.482 303.867 548.015C303.537 546.512 302.987 545.228 302.217 544.165C301.484 543.065 300.512 542.222 299.302 541.635C298.092 541.012 296.625 540.7 294.902 540.7C293.142 540.7 291.639 541.012 290.392 541.635C289.182 542.222 288.247 543.028 287.587 544.055H287.477V542.13C287.477 540.7 287.532 539.38 287.642 538.17C287.752 536.96 287.972 535.915 288.302 535.035C288.669 534.155 289.164 533.477 289.787 533C290.447 532.487 291.29 532.23 292.317 532.23C293.637 532.23 294.554 532.633 295.067 533.44C295.617 534.247 295.892 535.42 295.892 536.96Z" fill="#7A7A7A"/>
</svg>
